<svg width="300" height="300" viewBox="0 0 300 300" fill="none" xmlns="http://www.w3.org/2000/svg">
<path d="M21.321 149.991C21.321 200.924 50.9202 244.939 93.8414 265.798L32.4614 97.6242C25.3218 113.627 21.321 131.337 21.321 149.991V149.991Z" fill="#21759B"/>
<path d="M236.862 143.498C236.862 127.596 231.15 116.582 226.251 108.01C219.728 97.4112 213.614 88.4352 213.614 77.8359C213.614 66.0075 222.585 54.9969 235.222 54.9969C235.792 54.9969 236.333 55.0679 236.889 55.0997C213.996 34.1264 183.496 21.321 149.996 21.321C105.043 21.321 65.4933 44.3853 42.4853 79.3197C45.5042 79.4103 48.3493 79.4739 50.7659 79.4739C64.225 79.4739 85.0588 77.8408 85.0588 77.8408C91.9952 77.4319 92.813 87.6199 85.8839 88.4401C85.8839 88.4401 78.9132 89.2603 71.1566 89.6668L118.015 229.044L146.174 144.59L126.126 89.6619C119.197 89.2554 112.633 88.4352 112.633 88.4352C105.699 88.0288 106.512 77.427 113.446 77.8359C113.446 77.8359 134.696 79.469 147.34 79.469C160.796 79.469 181.633 77.8359 181.633 77.8359C188.574 77.427 189.389 87.615 182.458 88.4352C182.458 88.4352 175.472 89.2554 167.73 89.6619L214.231 227.984L227.066 185.095C232.629 167.297 236.862 154.514 236.862 143.498V143.498Z" fill="#21759B"/>
<path d="M152.254 161.247L113.647 273.432C125.174 276.821 137.365 278.674 149.996 278.674C164.981 278.674 179.351 276.084 192.726 271.38C192.381 270.829 192.068 270.244 191.811 269.608L152.254 161.247Z" fill="#21759B"/>
<path d="M262.904 88.2565C263.457 92.3552 263.77 96.755 263.77 101.488C263.77 114.545 261.332 129.224 253.986 147.577L214.682 261.217C252.936 238.909 278.667 197.464 278.667 149.994C278.669 127.622 272.955 106.585 262.904 88.2565V88.2565Z" fill="#21759B"/>
<path d="M149.996 0C67.2905 0 0 67.2856 0 149.991C0 232.707 67.2905 299.99 149.996 299.99C232.7 299.99 300 232.707 300 149.991C299.998 67.2856 232.7 0 149.996 0ZM149.996 293.115C71.0831 293.115 6.87767 228.91 6.87767 149.991C6.87767 71.0782 71.0807 6.87767 149.996 6.87767C228.907 6.87767 293.108 71.0782 293.108 149.991C293.108 228.91 228.907 293.115 149.996 293.115Z" fill="#21759B"/>
</svg>
